<svg width="129" height="65" viewBox="0 0 129 65" fill="none" xmlns="http://www.w3.org/2000/svg">
<path d="M29.1257 30C31.0569 30 32.9089 29.2338 34.2745 27.8699C35.64 26.506 36.4071 24.6561 36.4071 22.7273C36.4071 20.7984 35.64 18.9486 34.2745 17.5847C32.9089 16.2208 31.0569 15.4545 29.1257 15.4545V30Z" fill="#003F6B"/>
<path d="M29.1257 50.6538C29.2657 52.8456 30.666 54.7634 32.4864 55.4483L36.4071 56.8182V36.8182H36.4033C36.3751 35.9705 36.1888 35.134 35.8529 34.3493C35.4869 33.4945 34.9506 32.7178 34.2745 32.0636C33.5983 31.4093 32.7956 30.8904 31.9122 30.5363C31.0288 30.1822 30.0819 30 29.1257 30V50.6538Z" fill="#003F6B"/>
<path d="M48.8311 26.8182V6.36364H54.5652C55.8698 6.36364 56.9013 6.62121 57.6598 7.13636C58.4334 7.65151 58.9871 8.2803 59.3209 9.02273C59.6546 9.75 59.8215 10.4394 59.8215 11.0909C59.8215 11.8333 59.647 12.5152 59.2981 13.1364C58.9644 13.7424 58.5093 14.2424 57.9328 14.6364C59.0402 15.1364 59.9352 15.8864 60.6179 16.8864C61.3157 17.8864 61.6646 19.0227 61.6646 20.2955C61.6646 21.3712 61.3915 22.4091 60.8454 23.4091C60.3145 24.4091 59.5181 25.2273 58.4562 25.8636C57.4095 26.5 56.1125 26.8182 54.5652 26.8182H48.8311ZM51.4251 24.5H54.3832C55.5057 24.5 56.4083 24.2803 57.0909 23.8409C57.7736 23.4015 58.2742 22.8485 58.5927 22.1818C58.9113 21.5152 59.0706 20.8561 59.0706 20.2045C59.0706 19.5682 58.9189 18.9167 58.6155 18.25C58.3121 17.5833 57.8191 17.0303 57.1364 16.5909C56.4538 16.1364 55.536 15.9091 54.3832 15.9091H51.4251V24.5ZM51.4251 13.7273H54.3604C55.2554 13.7273 55.976 13.5152 56.5221 13.0909C57.0833 12.6515 57.364 12.0303 57.364 11.2273C57.364 10.3939 57.0909 9.76515 56.5448 9.34091C55.9987 8.90152 55.3009 8.68182 54.4514 8.68182H51.4251V13.7273Z" fill="#003F6B"/>
<path d="M70.4144 27.0909C69.4587 27.0909 68.5637 26.8561 67.7294 26.3864C66.895 25.9015 66.22 25.2045 65.7042 24.2955C65.1884 23.3864 64.9306 22.2955 64.9306 21.0227V13.1818H67.388V20.6818C67.388 21.7576 67.7066 22.7121 68.3437 23.5455C68.996 24.3636 69.9062 24.7727 71.0743 24.7727C72.0299 24.7727 72.8794 24.4318 73.6228 23.75C74.3812 23.053 74.7605 22.053 74.7605 20.75V13.1818H77.218V26.8182H74.9425V24.6136C74.4419 25.4167 73.7896 26.0303 72.9856 26.4545C72.1968 26.8788 71.3397 27.0909 70.4144 27.0909Z" fill="#003F6B"/>
<path d="M81.5868 26.8182V13.1818H84.0443V26.8182H81.5868ZM82.8156 10.7273C82.3605 10.7273 81.9736 10.5682 81.6551 10.25C81.3365 9.93182 81.1772 9.54545 81.1772 9.09091C81.1772 8.62121 81.3365 8.23485 81.6551 7.93182C81.9736 7.61364 82.3605 7.45454 82.8156 7.45454C83.2858 7.45454 83.6726 7.61364 83.976 7.93182C84.2946 8.23485 84.4539 8.62121 84.4539 9.09091C84.4539 9.54545 84.2946 9.93182 83.976 10.25C83.6726 10.5682 83.2858 10.7273 82.8156 10.7273Z" fill="#003F6B"/>
<path d="M88.4025 26.8182V5H90.86V26.8182H88.4025Z" fill="#003F6B"/>
<path d="M101.066 27C99.8221 27 98.6844 26.6894 97.6529 26.0682C96.6214 25.4318 95.7946 24.5833 95.1727 23.5227C94.5659 22.4621 94.2625 21.2879 94.2625 20C94.2625 18.7121 94.5659 17.5379 95.1727 16.4773C95.7946 15.4167 96.6214 14.5758 97.6529 13.9545C98.6844 13.3182 99.8221 13 101.066 13C101.961 13 102.803 13.1591 103.592 13.4773C104.381 13.7955 105.078 14.2348 105.685 14.7955V5H108.143V26.8182H105.867V25.0227C105.26 25.6288 104.54 26.1136 103.706 26.4773C102.886 26.8258 102.007 27 101.066 27ZM101.385 24.7727C102.249 24.7727 103.031 24.5606 103.728 24.1364C104.441 23.697 105.003 23.1212 105.412 22.4091C105.837 21.6818 106.049 20.8788 106.049 20C106.049 19.1212 105.837 18.3258 105.412 17.6136C105.003 16.8864 104.441 16.3106 103.728 15.8864C103.031 15.447 102.249 15.2273 101.385 15.2273C100.52 15.2273 99.7311 15.447 99.0182 15.8864C98.3203 16.3106 97.7591 16.8864 97.3343 17.6136C96.9247 18.3258 96.72 19.1212 96.72 20C96.72 20.8788 96.9247 21.6818 97.3343 22.4091C97.7591 23.1212 98.3203 23.697 99.0182 24.1364C99.7311 24.5606 100.52 24.7727 101.385 24.7727Z" fill="#003F6B"/>
<path d="M53.2454 53C52.0319 53 50.9321 52.7576 49.946 52.2727C48.9752 51.7879 48.2015 51.197 47.6251 50.5L48.376 47.3636C48.8007 48.2121 49.4379 48.9773 50.2873 49.6591C51.1368 50.3409 52.1532 50.6818 53.3364 50.6818C54.4135 50.6818 55.3009 50.3409 55.9987 49.6591C56.7117 48.9773 57.0682 48.1364 57.0682 47.1364C57.0682 46.4091 56.8937 45.8106 56.5448 45.3409C56.1959 44.8712 55.8015 44.5 55.3616 44.2273C54.9217 43.9545 54.5728 43.7576 54.3149 43.6364L51.8119 42.3636C51.4175 42.1515 50.9245 41.8561 50.3329 41.4773C49.7564 41.0985 49.2482 40.5758 48.8083 39.9091C48.3684 39.2424 48.1484 38.3788 48.1484 37.3182C48.1484 36.2879 48.3836 35.3712 48.8538 34.5682C49.3392 33.7651 50.0067 33.1364 50.8562 32.6818C51.7209 32.2273 52.7069 32 53.8143 32C54.9065 32 55.8698 32.197 56.7041 32.5909C57.5384 32.9697 58.1907 33.3636 58.661 33.7727L57.9101 36.9091C57.5309 36.2727 56.9696 35.6742 56.2263 35.1136C55.483 34.553 54.641 34.2727 53.7005 34.2727C52.7903 34.2727 52.0622 34.5455 51.5161 35.0909C50.97 35.6212 50.6969 36.2803 50.6969 37.0682C50.6969 37.6742 50.8335 38.1742 51.1065 38.5682C51.3947 38.9621 51.7133 39.2727 52.0622 39.5C52.4263 39.7273 52.7221 39.9015 52.9496 40.0227L55.4981 41.2955C55.8015 41.447 56.1808 41.6591 56.6358 41.9318C57.1061 42.2045 57.5688 42.5682 58.0239 43.0227C58.479 43.4621 58.8582 44.0076 59.1616 44.6591C59.465 45.2955 59.6167 46.0682 59.6167 46.9773C59.6167 48.1439 59.336 49.1818 58.7748 50.0909C58.2287 51 57.4778 51.7121 56.5221 52.2273C55.5664 52.7424 54.4742 53 53.2454 53Z" fill="#003F6B"/>
<path d="M69.4359 53C68.101 53 66.8874 52.6818 65.7952 52.0455C64.703 51.4091 63.8308 50.553 63.1785 49.4773C62.5262 48.4015 62.2 47.2121 62.2 45.9091C62.2 44.6061 62.5262 43.4167 63.1785 42.3409C63.8308 41.2652 64.703 40.4091 65.7952 39.7727C66.8874 39.1364 68.101 38.8182 69.4359 38.8182C70.422 38.8182 71.3473 38.9924 72.212 39.3409C73.0767 39.6894 73.8351 40.1515 74.4874 40.7273L73.7365 43.8182C73.3573 43.0606 72.7808 42.4242 72.0072 41.9091C71.2487 41.3939 70.384 41.1364 69.4132 41.1364C68.5333 41.1364 67.7294 41.3561 67.0012 41.7955C66.2882 42.2197 65.7194 42.7955 65.2946 43.5227C64.8699 44.2348 64.6575 45.0303 64.6575 45.9091C64.6575 46.7727 64.8699 47.5682 65.2946 48.2955C65.7194 49.0227 66.2882 49.6061 67.0012 50.0455C67.7294 50.4697 68.5333 50.6818 69.4132 50.6818C70.384 50.6818 71.2487 50.4318 72.0072 49.9318C72.7808 49.4318 73.3573 48.7879 73.7365 48L74.4874 51.0909C73.8351 51.6667 73.0767 52.1288 72.212 52.4773C71.3473 52.8258 70.422 53 69.4359 53Z" fill="#003F6B"/>
<path d="M83.7257 53C82.406 53 81.2 52.6818 80.1078 52.0455C79.0156 51.4091 78.1433 50.553 77.491 49.4773C76.8539 48.4015 76.5353 47.2121 76.5353 45.9091C76.5353 44.5909 76.8539 43.4015 77.491 42.3409C78.1433 41.2652 79.0156 40.4091 80.1078 39.7727C81.2 39.1364 82.406 38.8182 83.7257 38.8182C85.0607 38.8182 86.2667 39.1364 87.3437 39.7727C88.4359 40.4091 89.3006 41.2652 89.9377 42.3409C90.59 43.4015 90.9161 44.5909 90.9161 45.9091C90.9161 47.2121 90.59 48.4015 89.9377 49.4773C89.3006 50.553 88.4359 51.4091 87.3437 52.0455C86.2667 52.6818 85.0607 53 83.7257 53ZM83.7257 50.6818C84.6056 50.6818 85.402 50.4697 86.115 50.0455C86.8279 49.6061 87.3968 49.0303 87.8215 48.3182C88.2463 47.5909 88.4587 46.7879 88.4587 45.9091C88.4587 45.0303 88.2463 44.2348 87.8215 43.5227C87.3968 42.7955 86.8279 42.2197 86.115 41.7955C85.402 41.3561 84.6056 41.1364 83.7257 41.1364C82.8459 41.1364 82.0495 41.3561 81.3365 41.7955C80.6235 42.2197 80.0547 42.7955 79.6299 43.5227C79.2052 44.2348 78.9928 45.0303 78.9928 45.9091C78.9928 46.7879 79.2052 47.5909 79.6299 48.3182C80.0547 49.0303 80.6235 49.6061 81.3365 50.0455C82.0495 50.4697 82.8459 50.6818 83.7257 50.6818Z" fill="#003F6B"/>
<path d="M99.533 53C98.5773 53 97.6823 52.7652 96.848 52.2955C96.0136 51.8106 95.3386 51.1136 94.8228 50.2045C94.307 49.2955 94.0491 48.2045 94.0491 46.9318V39.0909H96.5066V46.5909C96.5066 47.6667 96.8252 48.6212 97.4623 49.4545C98.1146 50.2727 99.0248 50.6818 100.193 50.6818C101.149 50.6818 101.998 50.3409 102.741 49.6591C103.5 48.9621 103.879 47.9621 103.879 46.6591V39.0909H106.337V52.7273H104.061V50.5227C103.561 51.3258 102.908 51.9394 102.104 52.3636C101.315 52.7879 100.458 53 99.533 53Z" fill="#003F6B"/>
<path d="M112.298 52.7273V41.1364H109.204V39.0909H112.366V34.5455H114.687V39.0909H118.078V41.1364H114.756V52.7273H112.298Z" fill="#003F6B"/>
<path d="M124.472 53C123.774 53 123.023 52.8712 122.219 52.6136C121.43 52.3409 120.748 51.8939 120.171 51.2727L120.854 48.5909C121.279 49.303 121.825 49.8712 122.492 50.2955C123.16 50.7045 123.873 50.9091 124.631 50.9091C125.359 50.9091 125.905 50.7348 126.269 50.3864C126.634 50.0227 126.816 49.5833 126.816 49.0682C126.816 48.4773 126.618 48.0455 126.224 47.7727C125.845 47.5 125.503 47.3106 125.2 47.2045L123.357 46.5C123.023 46.3636 122.621 46.1667 122.151 45.9091C121.681 45.6364 121.271 45.25 120.922 44.75C120.573 44.25 120.399 43.5985 120.399 42.7955C120.399 42.0682 120.573 41.4015 120.922 40.7955C121.271 40.1894 121.764 39.7121 122.401 39.3636C123.038 39 123.789 38.8182 124.654 38.8182C125.337 38.8182 126.05 38.9394 126.793 39.1818C127.536 39.4242 128.166 39.8333 128.681 40.4091L127.999 43.0909C127.635 42.4242 127.142 41.8939 126.52 41.5C125.898 41.1061 125.253 40.9091 124.586 40.9091C123.964 40.9091 123.471 41.0833 123.107 41.4318C122.758 41.7803 122.583 42.1818 122.583 42.6364C122.583 43 122.705 43.3258 122.947 43.6136C123.19 43.9015 123.554 44.1364 124.04 44.3182L125.883 45.0227C126.216 45.1439 126.626 45.3409 127.111 45.6136C127.612 45.8864 128.052 46.2803 128.431 46.7955C128.81 47.3106 129 48.0076 129 48.8864C129 50.1136 128.568 51.1061 127.703 51.8636C126.853 52.6212 125.776 53 124.472 53Z" fill="#003F6B"/>
<path fill-rule="evenodd" clip-rule="evenodd" d="M29.1257 14.1524V0L17.7827 3.89551C17.5476 3.95562 17.3125 4.02555 17.0778 4.10558L6.17128 7.82402C2.48644 9.08032 0.00977731 12.5386 0.00977731 16.4275V39.5514L0 39.5455V65L20.479 58.0452L20.4641 58.0263L21.8423 57.5564V37.1827C21.8423 35.2549 22.609 33.406 23.9738 32.0429C25.3386 30.6797 27.1897 29.9139 29.1198 29.9139C25.1006 29.9139 21.8423 26.6595 21.8423 22.6451C21.8423 18.6306 25.1006 15.3762 29.1198 15.3762V14.1548L29.1257 14.1524ZM4.55089 15.9091C4.64366 15.7238 4.72292 15.55 4.79855 15.3843C5.0464 14.841 5.25535 14.383 5.77339 13.8817C6.44954 13.2275 7.25223 12.7086 8.13566 12.3545C9.01908 12.0004 11.3312 11.8182 12.2874 11.8182V15.9091C12.1946 16.0944 12.1154 16.2681 12.0397 16.4339C11.7919 16.9772 11.583 17.4352 11.0649 17.9364C10.3888 18.5907 9.58606 19.1096 8.70264 19.4637C7.81922 19.8178 5.5071 20 4.55089 20V15.9091ZM4.79855 24.4752C4.72292 24.641 4.64366 24.8147 4.55089 25V29.0909C5.5071 29.0909 7.81922 28.9087 8.70264 28.5546C9.58606 28.2005 10.3888 27.6816 11.0649 27.0273C11.583 26.5261 11.7919 26.0681 12.0397 25.5248C12.1154 25.359 12.1946 25.1853 12.2874 25V20.9091C11.3312 20.9091 9.01908 21.0913 8.13566 21.4454C7.25223 21.7995 6.44954 22.3184 5.77339 22.9727C5.25535 23.4739 5.0464 23.9319 4.79855 24.4752Z" fill="#003F6B"/>
</svg>
