<svg width="87" height="87" viewBox="0 0 87 87" fill="none" xmlns="http://www.w3.org/2000/svg">
<circle cx="43.5" cy="43.5" r="43.5" fill="black"/>
<path d="M58.7837 42.4121C58.7837 38.2027 57.1115 34.1657 54.135 31.1892C51.1585 28.2127 47.1215 26.5405 42.9121 26.5405C38.7027 26.5405 34.6656 28.2127 31.6891 31.1892C28.7126 34.1657 27.0404 38.2027 27.0404 42.4121V52.5105C27.0404 54.1929 27.0404 55.0301 27.2904 55.7026C27.4892 56.2356 27.8002 56.7196 28.2024 57.1218C28.6046 57.524 29.0886 57.835 29.6216 58.0338C30.2941 58.2838 31.1333 58.2838 32.8137 58.2838H42.9121C47.1215 58.2838 51.1585 56.6116 54.135 53.6351C57.1115 50.6586 58.7837 46.6216 58.7837 42.4121Z" stroke="white"/>
</svg>
