<svg width="111" height="125" viewBox="0 0 111 125" fill="none" xmlns="http://www.w3.org/2000/svg">
<path d="M48.3948 62.0489L51.1037 59.8326L48.3948 62.0489ZM1.52574 40.7853C0.158551 42.1518 0.157982 44.3679 1.52446 45.7351L23.7926 68.0147C25.1591 69.3819 27.3752 69.3825 28.7423 68.016C30.1095 66.6495 30.1101 64.4334 28.7436 63.0662L8.94972 43.2621L28.7538 23.4682C30.121 22.1018 30.1216 19.8857 28.7551 18.5185C27.3886 17.1513 25.1725 17.1507 23.8053 18.5172L1.52574 40.7853ZM58.6382 123.512C62.1132 123.929 62.1133 123.928 62.1134 123.927C62.1135 123.926 62.1136 123.925 62.1138 123.924C62.114 123.922 62.1144 123.919 62.1148 123.915C62.1156 123.908 62.1168 123.899 62.1182 123.886C62.121 123.862 62.125 123.827 62.1301 123.783C62.1402 123.694 62.1545 123.565 62.1723 123.398C62.2078 123.065 62.257 122.58 62.3137 121.96C62.4271 120.72 62.5704 118.938 62.693 116.744C62.938 112.363 63.1021 106.314 62.7745 99.651C62.1316 86.5769 59.5648 70.1739 51.1037 59.8326L45.686 64.2652C52.5908 72.7044 55.1456 87.0328 55.7829 99.9948C56.0954 106.35 55.9393 112.145 55.7039 116.354C55.5864 118.455 55.4495 120.155 55.3428 121.322C55.2894 121.906 55.2436 122.356 55.2116 122.657C55.1956 122.808 55.183 122.921 55.1747 122.994C55.1705 123.031 55.1674 123.058 55.1654 123.075C55.1644 123.083 55.1637 123.089 55.1634 123.092C55.1632 123.094 55.163 123.095 55.163 123.095C55.163 123.096 55.163 123.095 55.163 123.095C55.163 123.095 55.1631 123.095 58.6382 123.512ZM51.1037 59.8326C42.7491 49.6215 30.8252 44.659 21.3031 42.2215C16.5058 40.9934 12.2169 40.38 9.12176 40.0726C7.57169 39.9187 6.31422 39.8408 5.43388 39.8014C4.99353 39.7817 4.64698 39.7715 4.40478 39.7663C4.28365 39.7637 4.18856 39.7624 4.12082 39.7617C4.08695 39.7613 4.05991 39.7611 4.03987 39.761C4.02985 39.7609 4.02157 39.7609 4.01506 39.7609C4.01181 39.7609 4.009 39.7609 4.00664 39.7609C4.00546 39.7609 4.00401 39.7609 4.00342 39.7609C4.00209 39.7609 4.00088 39.7609 3.99998 43.2609C3.99907 46.7609 3.99808 46.7609 3.99719 46.7609C3.99704 46.7609 3.99626 46.7609 3.99597 46.7609C3.99537 46.7609 3.9952 46.7609 3.99547 46.7609C3.99602 46.7609 3.99829 46.7609 4.00228 46.7609C4.01026 46.7609 4.02509 46.761 4.04661 46.7613C4.08966 46.7617 4.15946 46.7627 4.2547 46.7647C4.44522 46.7688 4.73734 46.7772 5.12076 46.7944C5.88797 46.8287 7.01843 46.8981 8.42991 47.0383C11.2579 47.3192 15.1866 47.8815 19.5672 49.0028C28.4011 51.2642 38.6746 55.6958 45.686 64.2652L51.1037 59.8326Z" fill="#003F6B"/>
<path d="M109.645 42.708C110.911 44.1688 110.753 46.3792 109.292 47.6452L85.488 68.2754C84.0273 69.5414 81.8168 69.3835 80.5509 67.9228C79.2849 66.462 79.4428 64.2516 80.9035 62.9856L102.063 44.6476L83.7248 23.4883C82.4589 22.0275 82.6167 19.8171 84.0775 18.5511C85.5382 17.2851 87.7487 17.443 89.0147 18.9038L109.645 42.708ZM59.4999 63.0001C56.8565 60.7061 56.8576 60.7049 56.8587 60.7036C56.859 60.7032 56.8601 60.7019 56.8609 60.7011C56.8624 60.6994 56.8639 60.6977 56.8654 60.6959C56.8685 60.6923 56.8718 60.6886 56.8752 60.6848C56.882 60.6771 56.8894 60.6687 56.8974 60.6598C56.9134 60.6419 56.9318 60.6214 56.953 60.5984C56.9952 60.5524 57.0484 60.4958 57.1139 60.4279C57.2447 60.2925 57.4262 60.1111 57.6711 59.8789C58.16 59.4152 58.9088 58.742 60.022 57.8203C62.2461 55.9788 65.9569 53.1188 72.0125 48.9265L75.9969 54.6819C70.0575 58.7937 66.5158 61.5316 64.4863 63.212C63.4727 64.0513 62.8443 64.6201 62.4879 64.9581C62.31 65.1268 62.2018 65.2362 62.1485 65.2913C62.1219 65.3188 62.1094 65.3324 62.1091 65.3328C62.1089 65.333 62.1118 65.3298 62.1176 65.3234C62.1205 65.3201 62.1241 65.3161 62.1284 65.3112C62.1305 65.3088 62.1328 65.3061 62.1353 65.3033C62.1366 65.3019 62.1379 65.3004 62.1392 65.2989C62.1399 65.2981 62.1409 65.2969 62.1412 65.2965C62.1422 65.2953 62.1433 65.2941 59.4999 63.0001ZM72.0125 48.9265C78.7616 44.2543 87.7453 42.4841 94.6584 41.805C98.1796 41.4591 101.303 41.3843 103.549 41.3957C104.674 41.4013 105.584 41.4287 106.219 41.455C106.537 41.4682 106.787 41.4812 106.961 41.4911C107.048 41.4961 107.116 41.5003 107.165 41.5035C107.189 41.505 107.208 41.5063 107.222 41.5073C107.229 41.5077 107.235 41.5081 107.24 41.5085C107.242 41.5086 107.244 41.5088 107.245 41.5089C107.246 41.5089 107.247 41.509 107.248 41.509C107.249 41.5091 107.249 41.5092 107 45.0003C106.751 48.4914 106.751 48.4914 106.752 48.4915C106.752 48.4915 106.752 48.4915 106.753 48.4915C106.753 48.4915 106.753 48.4915 106.753 48.4915C106.752 48.4915 106.75 48.4914 106.747 48.4911C106.741 48.4907 106.73 48.49 106.714 48.489C106.682 48.4869 106.631 48.4837 106.562 48.4797C106.422 48.4718 106.209 48.4606 105.929 48.449C105.369 48.4258 104.545 48.4008 103.514 48.3956C101.447 48.3852 98.5709 48.4544 95.3427 48.7715C88.7569 49.4184 81.2431 51.0501 75.9969 54.6819L72.0125 48.9265Z" fill="#003F6B"/>
<path d="M54.4571 1.52506C55.8239 0.158223 58.04 0.158224 59.4069 1.52506L81.6807 23.7989C83.0476 25.1657 83.0476 27.3818 81.6807 28.7487C80.3139 30.1155 78.0978 30.1155 76.731 28.7487L56.932 8.94968L37.133 28.7487C35.7662 30.1155 33.5501 30.1155 32.1833 28.7487C30.8164 27.3818 30.8164 25.1658 32.1833 23.7989L54.4571 1.52506ZM53.432 53.5L53.432 3.99993L60.432 3.99993L60.432 53.5L53.432 53.5Z" fill="#003F6B"/>
</svg>
