<svg width="29" height="29" viewBox="0 0 29 29" fill="none" xmlns="http://www.w3.org/2000/svg">
<path d="M24.6875 0.579102H4.35069C3.30468 0.582018 2.30234 0.998837 1.5627 1.73848C0.823056 2.47812 0.406237 3.48046 0.40332 4.52647V24.8633C0.406237 25.9093 0.823056 26.9117 1.5627 27.6513C2.30234 28.3909 3.30468 28.8078 4.35069 28.8107H24.6875C25.7344 28.8107 26.7385 28.3948 27.4787 27.6545C28.219 26.9143 28.6349 25.9102 28.6349 24.8633V4.52647C28.6349 3.47956 28.219 2.47553 27.4787 1.73526C26.7385 0.994984 25.7344 0.579102 24.6875 0.579102ZM27.056 24.8633C27.0518 25.4902 26.801 26.0902 26.3577 26.5335C25.9144 26.9767 25.3144 27.2276 24.6875 27.2317H4.35069C3.72382 27.2276 3.12381 26.9767 2.68054 26.5335C2.23726 26.0902 1.98641 25.4902 1.98227 24.8633V4.52647C1.98641 3.8996 2.23726 3.29959 2.68054 2.85632C3.12381 2.41304 3.72382 2.16219 4.35069 2.15805H24.6875C25.3144 2.16219 25.9144 2.41304 26.3577 2.85632C26.801 3.29959 27.0518 3.8996 27.056 4.52647V24.8633Z" fill="black"/>
<path d="M5.63916 12.7176C5.63916 12.2989 5.80551 11.8972 6.10162 11.6011C6.39773 11.305 6.79934 11.1387 7.21811 11.1387C7.63687 11.1387 8.03848 11.305 8.33459 11.6011C8.6307 11.8972 8.79706 12.2989 8.79706 12.7176V22.9808C8.79706 23.3995 8.6307 23.8012 8.33459 24.0973C8.03848 24.3934 7.63687 24.5597 7.21811 24.5597C6.79934 24.5597 6.39773 24.3934 6.10162 24.0973C5.80551 23.8012 5.63916 23.3995 5.63916 22.9808V12.7176Z" fill="black"/>
<path d="M7.21811 7.9743C8.09014 7.9743 8.79706 7.26738 8.79706 6.39535C8.79706 5.52333 8.09014 4.81641 7.21811 4.81641C6.34608 4.81641 5.63916 5.52333 5.63916 6.39535C5.63916 7.26738 6.34608 7.9743 7.21811 7.9743Z" fill="black"/>
<path d="M23.3928 16.8582V22.9845C23.3928 23.4033 23.2265 23.8049 22.9304 24.101C22.6343 24.3971 22.2327 24.5635 21.8139 24.5635C21.3951 24.5635 20.9935 24.3971 20.6974 24.101C20.4013 23.8049 20.2349 23.4033 20.2349 22.9845V16.8582C20.2349 16.1819 19.9663 15.5333 19.4881 15.0551C19.0098 14.5769 18.3612 14.3082 17.6849 14.3082C17.0086 14.3082 16.36 14.5769 15.8818 15.0551C15.4036 15.5333 15.1349 16.1819 15.1349 16.8582V22.9845C15.1349 23.4033 14.9686 23.8049 14.6725 24.101C14.3764 24.3971 13.9748 24.5635 13.556 24.5635C13.1372 24.5635 12.7356 24.3971 12.4395 24.101C12.1434 23.8049 11.9771 23.4033 11.9771 22.9845V12.7213C11.9836 12.3046 12.152 11.9068 12.4467 11.6121C12.7414 11.3174 13.1393 11.1489 13.556 11.1424C13.8234 11.1351 14.0879 11.2002 14.3213 11.3308C14.5548 11.4614 14.7486 11.6528 14.8823 11.8845C15.7505 11.3924 16.7327 11.1369 17.7306 11.1435C18.7286 11.1502 19.7073 11.4187 20.5689 11.9222C21.4305 12.4257 22.1448 13.1467 22.6404 14.0129C23.136 14.8791 23.3954 15.8602 23.3928 16.8582Z" fill="black"/>
</svg>
