<svg width="30" height="30" viewBox="0 0 30 30" fill="none" xmlns="http://www.w3.org/2000/svg">
<path d="M15 8.23529C13.6621 8.23529 12.3542 8.63204 11.2417 9.37535C10.1293 10.1187 9.26223 11.1752 8.75023 12.4113C8.23822 13.6473 8.10426 15.0075 8.36528 16.3197C8.62629 17.632 9.27057 18.8373 10.2166 19.7834C11.1627 20.7294 12.368 21.3737 13.6803 21.6347C14.9925 21.8957 16.3527 21.7618 17.5887 21.2498C18.8248 20.7378 19.8813 19.8707 20.6246 18.7583C21.368 17.6458 21.7647 16.3379 21.7647 15C21.7624 13.2066 21.0489 11.4873 19.7808 10.2192C18.5127 8.95109 16.7934 8.23763 15 8.23529ZM15 20C14.0111 20 13.0444 19.7068 12.2221 19.1574C11.3999 18.6079 10.759 17.827 10.3806 16.9134C10.0022 15.9998 9.90315 14.9945 10.0961 14.0245C10.289 13.0546 10.7652 12.1637 11.4645 11.4645C12.1637 10.7652 13.0546 10.289 14.0245 10.0961C14.9945 9.90315 15.9998 10.0022 16.9134 10.3806C17.827 10.759 18.6079 11.3999 19.1574 12.2221C19.7068 13.0444 20 14.0111 20 15C20 16.3261 19.4732 17.5979 18.5355 18.5355C17.5979 19.4732 16.3261 20 15 20ZM22.0588 0H7.94118C5.83576 0.00233546 3.81725 0.839743 2.3285 2.3285C0.839743 3.81725 0.00233546 5.83576 0 7.94118V22.0588C0.00233546 24.1642 0.839743 26.1828 2.3285 27.6715C3.81725 29.1603 5.83576 29.9977 7.94118 30H22.0588C24.1642 29.9977 26.1828 29.1603 27.6715 27.6715C29.1603 26.1828 29.9977 24.1642 30 22.0588V7.94118C29.9977 5.83576 29.1603 3.81725 27.6715 2.3285C26.1828 0.839743 24.1642 0.00233546 22.0588 0ZM28.2353 22.0588C28.2353 23.6969 27.5846 25.2679 26.4262 26.4262C25.2679 27.5846 23.6969 28.2353 22.0588 28.2353H7.94118C6.30307 28.2353 4.73207 27.5846 3.57375 26.4262C2.41544 25.2679 1.76471 23.6969 1.76471 22.0588V7.94118C1.76471 6.30307 2.41544 4.73207 3.57375 3.57375C4.73207 2.41544 6.30307 1.76471 7.94118 1.76471H22.0588C23.6969 1.76471 25.2679 2.41544 26.4262 3.57375C27.5846 4.73207 28.2353 6.30307 28.2353 7.94118V22.0588ZM24.1176 7.35294C24.1176 7.6438 24.0314 7.92812 23.8698 8.16996C23.7082 8.41179 23.4785 8.60028 23.2098 8.71159C22.9411 8.82289 22.6454 8.85202 22.3602 8.79527C22.0749 8.73853 21.8129 8.59847 21.6072 8.3928C21.4015 8.18714 21.2615 7.92511 21.2047 7.63984C21.148 7.35457 21.1771 7.05889 21.2884 6.79017C21.3997 6.52146 21.5882 6.29178 21.83 6.13019C22.0719 5.9686 22.3562 5.88235 22.6471 5.88235C23.0371 5.88235 23.4111 6.03729 23.6869 6.31308C23.9627 6.58887 24.1176 6.96292 24.1176 7.35294Z" fill="black"/>
</svg>
