<svg width="121" height="121" viewBox="0 0 121 121" fill="none" xmlns="http://www.w3.org/2000/svg">
<path d="M8.89286 78.0357H17.0357V82.1071C17.0357 87.904 19.3385 93.4635 23.4375 97.5625C27.5365 101.661 33.096 103.964 38.8929 103.964H51.6071V112.107H38.8929C30.9364 112.107 23.3057 108.946 17.6797 103.32C12.0536 97.6943 8.89286 90.0636 8.89286 82.1071V78.0357ZM103.464 42.9643H95.3214V38.8929C95.3214 36.0225 94.7561 33.1803 93.6577 30.5285C92.5592 27.8767 90.9492 25.4672 88.9196 23.4375C86.89 21.4079 84.4805 19.7979 81.8287 18.6995C79.1768 17.6011 76.3346 17.0357 73.4643 17.0357H60.75V8.89286H73.4643C81.4208 8.89286 89.0514 12.0536 94.6775 17.6797C100.304 23.3058 103.464 30.9364 103.464 38.8929V42.9643ZM12.9643 39.1429H38.8929C42.2649 39.1429 45.4988 40.4824 47.8832 42.8668C50.2676 45.2512 51.6071 48.4851 51.6071 51.8571V60.25H43.4643V51.8571C43.4643 50.6447 42.9827 49.482 42.1253 48.6247C41.268 47.7674 40.1053 47.2857 38.8929 47.2857H12.9643C11.7519 47.2857 10.5891 47.7674 9.7318 48.6247C8.87449 49.482 8.39286 50.6447 8.39286 51.8571V60.25H0.25V51.8571C0.25 48.4851 1.58954 45.2512 3.97393 42.8668C6.35832 40.4824 9.59225 39.1429 12.9643 39.1429ZM35.3931 31.4504C32.5916 33.3223 29.2979 34.3214 25.9286 34.3214C21.4104 34.3214 17.0773 32.5266 13.8825 29.3318C10.6877 26.137 8.89286 21.8039 8.89286 17.2857C8.89286 13.9164 9.89198 10.6227 11.7639 7.82119C13.6358 5.01968 16.2964 2.83617 19.4093 1.54677C22.5222 0.257381 25.9475 -0.0799825 29.2521 0.577344C32.5567 1.23467 35.5922 2.85717 37.9746 5.23965C40.3571 7.62214 41.9796 10.6576 42.637 13.9622C43.2943 17.2668 42.9569 20.6921 41.6675 23.805C40.3781 26.9179 38.1946 29.5785 35.3931 31.4504ZM30.8692 9.89158C29.4068 8.91442 27.6874 8.39286 25.9286 8.39286C23.57 8.39286 21.3081 9.32979 19.6404 10.9975C17.9726 12.6653 17.0357 14.9272 17.0357 17.2857C17.0357 19.0446 17.5573 20.7639 18.5344 22.2263C19.5116 23.6887 20.9005 24.8286 22.5254 25.5017C24.1504 26.1747 25.9384 26.3508 27.6635 26.0077C29.3885 25.6646 30.9731 24.8176 32.2168 23.5739C33.4605 22.3302 34.3074 20.7457 34.6506 19.0206C34.9937 17.2956 34.8176 15.5075 34.1445 13.8826C33.4714 12.2576 32.3316 10.8687 30.8692 9.89158ZM73.1168 103.367C75.5012 100.982 78.7351 99.6429 82.1071 99.6429H108.036C111.408 99.6429 114.642 100.982 117.026 103.367C119.41 105.751 120.75 108.985 120.75 112.357V120.75H112.607V112.357C112.607 111.145 112.126 109.982 111.268 109.125C110.411 108.267 109.248 107.786 108.036 107.786H82.1071C80.8947 107.786 79.732 108.267 78.8747 109.125C78.0173 109.982 77.5357 111.145 77.5357 112.357V120.75H69.3929V112.357C69.3929 108.985 70.7324 105.751 73.1168 103.367ZM80.9068 87.2503C79.0348 84.4487 78.0357 81.1551 78.0357 77.7857C78.0357 73.2676 79.8306 68.9345 83.0254 65.7397C86.2202 62.5448 90.5533 60.75 95.0714 60.75C98.4408 60.75 101.734 61.7491 104.536 63.621C107.337 65.493 109.521 68.1536 110.81 71.2664C112.1 74.3793 112.437 77.8046 111.78 81.1092C111.122 84.4138 109.5 87.4493 107.118 89.8318C104.735 92.2143 101.7 93.8368 98.3949 94.4941C95.0903 95.1514 91.665 94.8141 88.5522 93.5247C85.4393 92.2353 82.7787 90.0518 80.9068 87.2503ZM102.466 82.7263C103.443 81.2639 103.964 79.5446 103.964 77.7857C103.964 75.4272 103.027 73.1653 101.36 71.4975C99.6919 69.8298 97.43 68.8929 95.0714 68.8929C93.3126 68.8929 91.5932 69.4144 90.1308 70.3916C88.6684 71.3687 87.5286 72.7576 86.8555 74.3826C86.1824 76.0075 86.0063 77.7956 86.3494 79.5206C86.6926 81.2457 87.5396 82.8302 88.7832 84.0739C90.0269 85.3176 91.6115 86.1646 93.3365 86.5077C95.0616 86.8508 96.8496 86.6747 98.4746 86.0016C100.1 85.3286 101.488 84.1888 102.466 82.7263Z" fill="#003F6B" stroke="#003F6B" stroke-width="0.5"/>
</svg>
