<svg width="117" height="121" viewBox="0 0 117 121" fill="none" xmlns="http://www.w3.org/2000/svg">
<mask id="path-1-inside-1_2001_204" fill="white">
<path d="M102.649 44.001C100.528 43.9994 98.4342 44.469 96.519 45.3757L78.638 23.1052C80.0461 21.3108 81.0036 19.207 81.4307 16.969C81.8579 14.7311 81.7423 12.4239 81.0936 10.2395C80.445 8.05512 79.282 6.05686 77.7016 4.41117C76.1212 2.76548 74.1691 1.52002 72.0079 0.778542C69.8468 0.0370614 67.5392 -0.178973 65.2773 0.148437C63.0154 0.475848 60.8648 1.33722 59.0046 2.66081C57.1443 3.98439 55.6284 5.73186 54.5829 7.75764C53.5375 9.78342 52.9929 12.0289 52.9944 14.3069C52.9945 15.0787 53.0572 15.8493 53.182 16.611L25.9606 27.9112C24.5883 26.0234 22.7736 24.4987 20.6747 23.4699C18.5758 22.4411 16.2564 21.9395 13.9184 22.0088C11.5805 22.078 9.29503 22.716 7.26114 23.8672C5.22724 25.0184 3.50662 26.6478 2.2492 28.6135C0.991782 30.5792 0.235703 32.8215 0.0468418 35.1451C-0.142019 37.4688 0.242066 39.8032 1.16563 41.945C2.0892 44.0868 3.52423 45.971 5.3457 47.4335C7.16716 48.8959 9.3198 49.8923 11.6161 50.3357L12.7195 77.5443C10.4409 78.1763 8.3545 79.36 6.64597 80.9901C4.93744 82.6202 3.65982 84.646 2.92686 86.8873C2.19389 89.1286 2.02833 91.5157 2.44491 93.8362C2.86149 96.1567 3.84729 98.3385 5.31453 100.187C6.78177 102.036 8.68494 103.495 10.8546 104.433C13.0242 105.372 15.393 105.761 17.7501 105.566C20.1071 105.372 22.3793 104.599 24.3643 103.317C26.3494 102.036 27.9856 100.285 29.1274 98.2201L57.4081 106.139V106.688C57.4058 109.032 57.9815 111.34 59.0846 113.41C60.1878 115.48 61.7845 117.248 63.7343 118.558C65.684 119.868 67.927 120.68 70.2658 120.923C72.6045 121.166 74.9674 120.832 77.1462 119.951C79.3251 119.07 81.2532 117.668 82.7608 115.869C84.2685 114.071 85.3093 111.931 85.7919 109.637C86.2744 107.343 86.1838 104.966 85.528 102.715C84.8722 100.465 83.6713 98.4093 82.031 96.7299L97.9479 71.8034C99.9184 72.4858 102.015 72.7315 104.09 72.5236C106.166 72.3156 108.171 71.659 109.966 70.5994C111.761 69.5398 113.302 68.1028 114.482 66.3886C115.663 64.6743 116.454 62.7241 116.801 60.6739C117.147 58.6236 117.041 56.5227 116.489 54.5175C115.938 52.5124 114.954 50.6513 113.607 49.0639C112.259 47.4766 110.581 46.2013 108.688 45.3269C106.796 44.4524 104.735 44 102.649 44.001ZM71.7526 92.3913C71.3223 92.3913 70.8975 92.3913 70.4782 92.4518L60.8288 63.5881L88.8557 62.2573C89.5134 64.5127 90.7164 66.5727 92.3591 68.2566L76.4422 93.1831C74.9344 92.6599 73.3492 92.3923 71.7526 92.3913ZM25.5578 80.1507C23.7505 78.6995 21.6169 77.7069 19.34 77.2583L18.2366 50.0498C20.7354 49.3498 22.9969 47.9871 24.7799 46.1071L50.3904 60.8826L25.5578 80.1507ZM67.339 28.6041C69.4593 28.6056 71.5532 28.136 73.4685 27.2293L91.3494 49.4999C89.9346 51.2993 88.9752 53.4117 88.5523 55.6586L60.5474 56.9894L67.339 28.6041ZM67.339 6.60846C68.8666 6.60846 70.36 7.05997 71.6302 7.90588C72.9004 8.7518 73.8904 9.95414 74.475 11.3608C75.0596 12.7676 75.2125 14.3155 74.9145 15.8088C74.6165 17.3022 73.8808 18.6739 72.8006 19.7506C71.7204 20.8272 70.3441 21.5604 68.8458 21.8575C67.3475 22.1545 65.7945 22.002 64.3831 21.4194C62.9717 20.8367 61.7654 19.85 60.9167 18.584C60.068 17.318 59.615 15.8295 59.615 14.3069C59.615 12.2652 60.4288 10.307 61.8773 8.86329C63.3258 7.41955 65.2904 6.60846 67.339 6.60846ZM55.753 22.6982C57.0994 24.5413 58.8655 26.0396 60.906 27.0699L54.0979 55.4222L28.1122 40.4157C28.7391 38.3361 28.8825 36.1415 28.5315 33.9985L55.753 22.6982ZM6.65066 36.3025C6.65066 34.7799 7.10366 33.2915 7.95238 32.0255C8.8011 30.7595 10.0074 29.7728 11.4188 29.1901C12.8302 28.6074 14.3832 28.4549 15.8815 28.752C17.3798 29.049 18.7561 29.7822 19.8363 30.8589C20.9165 31.9355 21.6521 33.3073 21.9502 34.8006C22.2482 36.294 22.0952 37.8419 21.5106 39.2486C20.926 40.6553 19.936 41.8576 18.6658 42.7036C17.3956 43.5495 15.9023 44.001 14.3746 44.001C12.3261 44.001 10.3615 43.1899 8.91295 41.7462C7.46443 40.3024 6.65066 38.3443 6.65066 36.3025ZM16.5815 98.99C15.0538 98.99 13.5605 98.5385 12.2903 97.6926C11.0201 96.8466 10.0301 95.6443 9.44545 94.2376C8.86085 92.8309 8.70788 91.283 9.00592 89.7896C9.30395 88.2963 10.0396 86.9245 11.1198 85.8479C12.2 84.7712 13.5763 84.038 15.0746 83.741C16.5729 83.4439 18.1259 83.5964 19.5373 84.1791C20.9487 84.7617 22.155 85.7485 23.0037 87.0145C23.8524 88.2805 24.3054 89.7689 24.3054 91.2915C24.3054 93.3333 23.4917 95.2914 22.0431 96.7352C20.5946 98.1789 18.63 98.99 16.5815 98.99ZM30.926 91.8414V91.2915C30.9268 89.2439 30.4845 87.2201 29.6295 85.3582L54.6496 65.9636L64.2052 94.5579C62.124 95.8474 60.4058 97.6431 59.2122 99.7763L30.926 91.8414ZM71.7526 114.387C70.225 114.387 68.7316 113.935 67.4614 113.089C66.1912 112.244 65.2012 111.041 64.6166 109.635C64.032 108.228 63.8791 106.68 64.1771 105.187C64.4751 103.693 65.2108 102.321 66.291 101.245C67.3712 100.168 68.7475 99.435 70.2458 99.1379C71.7441 98.8409 73.2971 98.9933 74.7085 99.576C76.1199 100.159 77.3262 101.145 78.1749 102.411C79.0236 103.677 79.4766 105.166 79.4766 106.688C79.4766 108.73 78.6628 110.688 77.2143 112.132C75.7658 113.576 73.8012 114.387 71.7526 114.387ZM102.649 65.9966C101.121 65.9966 99.6275 65.5451 98.3573 64.6992C97.0871 63.8532 96.0971 62.6509 95.5125 61.2442C94.9279 59.8375 94.7749 58.2896 95.073 56.7962C95.371 55.3029 96.1066 53.9311 97.1868 52.8545C98.2671 51.7778 99.6433 51.0446 101.142 50.7476C102.64 50.4505 104.193 50.603 105.604 51.1857C107.016 51.7683 108.222 52.7551 109.071 54.0211C109.919 55.2871 110.372 56.7755 110.372 58.2981C110.372 60.3399 109.559 62.298 108.11 63.7417C106.662 65.1855 104.697 65.9966 102.649 65.9966Z"/>
</mask>
<path d="M102.649 44.001C100.528 43.9994 98.4342 44.469 96.519 45.3757L78.638 23.1052C80.0461 21.3108 81.0036 19.207 81.4307 16.969C81.8579 14.7311 81.7423 12.4239 81.0936 10.2395C80.445 8.05512 79.282 6.05686 77.7016 4.41117C76.1212 2.76548 74.1691 1.52002 72.0079 0.778542C69.8468 0.0370614 67.5392 -0.178973 65.2773 0.148437C63.0154 0.475848 60.8648 1.33722 59.0046 2.66081C57.1443 3.98439 55.6284 5.73186 54.5829 7.75764C53.5375 9.78342 52.9929 12.0289 52.9944 14.3069C52.9945 15.0787 53.0572 15.8493 53.182 16.611L25.9606 27.9112C24.5883 26.0234 22.7736 24.4987 20.6747 23.4699C18.5758 22.4411 16.2564 21.9395 13.9184 22.0088C11.5805 22.078 9.29503 22.716 7.26114 23.8672C5.22724 25.0184 3.50662 26.6478 2.2492 28.6135C0.991782 30.5792 0.235703 32.8215 0.0468418 35.1451C-0.142019 37.4688 0.242066 39.8032 1.16563 41.945C2.0892 44.0868 3.52423 45.971 5.3457 47.4335C7.16716 48.8959 9.3198 49.8923 11.6161 50.3357L12.7195 77.5443C10.4409 78.1763 8.3545 79.36 6.64597 80.9901C4.93744 82.6202 3.65982 84.646 2.92686 86.8873C2.19389 89.1286 2.02833 91.5157 2.44491 93.8362C2.86149 96.1567 3.84729 98.3385 5.31453 100.187C6.78177 102.036 8.68494 103.495 10.8546 104.433C13.0242 105.372 15.393 105.761 17.7501 105.566C20.1071 105.372 22.3793 104.599 24.3643 103.317C26.3494 102.036 27.9856 100.285 29.1274 98.2201L57.4081 106.139V106.688C57.4058 109.032 57.9815 111.34 59.0846 113.41C60.1878 115.48 61.7845 117.248 63.7343 118.558C65.684 119.868 67.927 120.68 70.2658 120.923C72.6045 121.166 74.9674 120.832 77.1462 119.951C79.3251 119.07 81.2532 117.668 82.7608 115.869C84.2685 114.071 85.3093 111.931 85.7919 109.637C86.2744 107.343 86.1838 104.966 85.528 102.715C84.8722 100.465 83.6713 98.4093 82.031 96.7299L97.9479 71.8034C99.9184 72.4858 102.015 72.7315 104.09 72.5236C106.166 72.3156 108.171 71.659 109.966 70.5994C111.761 69.5398 113.302 68.1028 114.482 66.3886C115.663 64.6743 116.454 62.7241 116.801 60.6739C117.147 58.6236 117.041 56.5227 116.489 54.5175C115.938 52.5124 114.954 50.6513 113.607 49.0639C112.259 47.4766 110.581 46.2013 108.688 45.3269C106.796 44.4524 104.735 44 102.649 44.001ZM71.7526 92.3913C71.3223 92.3913 70.8975 92.3913 70.4782 92.4518L60.8288 63.5881L88.8557 62.2573C89.5134 64.5127 90.7164 66.5727 92.3591 68.2566L76.4422 93.1831C74.9344 92.6599 73.3492 92.3923 71.7526 92.3913ZM25.5578 80.1507C23.7505 78.6995 21.6169 77.7069 19.34 77.2583L18.2366 50.0498C20.7354 49.3498 22.9969 47.9871 24.7799 46.1071L50.3904 60.8826L25.5578 80.1507ZM67.339 28.6041C69.4593 28.6056 71.5532 28.136 73.4685 27.2293L91.3494 49.4999C89.9346 51.2993 88.9752 53.4117 88.5523 55.6586L60.5474 56.9894L67.339 28.6041ZM67.339 6.60846C68.8666 6.60846 70.36 7.05997 71.6302 7.90588C72.9004 8.7518 73.8904 9.95414 74.475 11.3608C75.0596 12.7676 75.2125 14.3155 74.9145 15.8088C74.6165 17.3022 73.8808 18.6739 72.8006 19.7506C71.7204 20.8272 70.3441 21.5604 68.8458 21.8575C67.3475 22.1545 65.7945 22.002 64.3831 21.4194C62.9717 20.8367 61.7654 19.85 60.9167 18.584C60.068 17.318 59.615 15.8295 59.615 14.3069C59.615 12.2652 60.4288 10.307 61.8773 8.86329C63.3258 7.41955 65.2904 6.60846 67.339 6.60846ZM55.753 22.6982C57.0994 24.5413 58.8655 26.0396 60.906 27.0699L54.0979 55.4222L28.1122 40.4157C28.7391 38.3361 28.8825 36.1415 28.5315 33.9985L55.753 22.6982ZM6.65066 36.3025C6.65066 34.7799 7.10366 33.2915 7.95238 32.0255C8.8011 30.7595 10.0074 29.7728 11.4188 29.1901C12.8302 28.6074 14.3832 28.4549 15.8815 28.752C17.3798 29.049 18.7561 29.7822 19.8363 30.8589C20.9165 31.9355 21.6521 33.3073 21.9502 34.8006C22.2482 36.294 22.0952 37.8419 21.5106 39.2486C20.926 40.6553 19.936 41.8576 18.6658 42.7036C17.3956 43.5495 15.9023 44.001 14.3746 44.001C12.3261 44.001 10.3615 43.1899 8.91295 41.7462C7.46443 40.3024 6.65066 38.3443 6.65066 36.3025ZM16.5815 98.99C15.0538 98.99 13.5605 98.5385 12.2903 97.6926C11.0201 96.8466 10.0301 95.6443 9.44545 94.2376C8.86085 92.8309 8.70788 91.283 9.00592 89.7896C9.30395 88.2963 10.0396 86.9245 11.1198 85.8479C12.2 84.7712 13.5763 84.038 15.0746 83.741C16.5729 83.4439 18.1259 83.5964 19.5373 84.1791C20.9487 84.7617 22.155 85.7485 23.0037 87.0145C23.8524 88.2805 24.3054 89.7689 24.3054 91.2915C24.3054 93.3333 23.4917 95.2914 22.0431 96.7352C20.5946 98.1789 18.63 98.99 16.5815 98.99ZM30.926 91.8414V91.2915C30.9268 89.2439 30.4845 87.2201 29.6295 85.3582L54.6496 65.9636L64.2052 94.5579C62.124 95.8474 60.4058 97.6431 59.2122 99.7763L30.926 91.8414ZM71.7526 114.387C70.225 114.387 68.7316 113.935 67.4614 113.089C66.1912 112.244 65.2012 111.041 64.6166 109.635C64.032 108.228 63.8791 106.68 64.1771 105.187C64.4751 103.693 65.2108 102.321 66.291 101.245C67.3712 100.168 68.7475 99.435 70.2458 99.1379C71.7441 98.8409 73.2971 98.9933 74.7085 99.576C76.1199 100.159 77.3262 101.145 78.1749 102.411C79.0236 103.677 79.4766 105.166 79.4766 106.688C79.4766 108.73 78.6628 110.688 77.2143 112.132C75.7658 113.576 73.8012 114.387 71.7526 114.387ZM102.649 65.9966C101.121 65.9966 99.6275 65.5451 98.3573 64.6992C97.0871 63.8532 96.0971 62.6509 95.5125 61.2442C94.9279 59.8375 94.7749 58.2896 95.073 56.7962C95.371 55.3029 96.1066 53.9311 97.1868 52.8545C98.2671 51.7778 99.6433 51.0446 101.142 50.7476C102.64 50.4505 104.193 50.603 105.604 51.1857C107.016 51.7683 108.222 52.7551 109.071 54.0211C109.919 55.2871 110.372 56.7755 110.372 58.2981C110.372 60.3399 109.559 62.298 108.11 63.7417C106.662 65.1855 104.697 65.9966 102.649 65.9966Z" fill="#003F6B" stroke="#003F6B" stroke-width="0.125" mask="url(#path-1-inside-1_2001_204)"/>
</svg>
